<svg id="Camada_1" data-name="Camada 1" xmlns="http://www.w3.org/2000/svg" viewBox="0 0 208 171.52"><defs><style>.cls-1{fill:#ebb300;}</style></defs><title>noun_master degrees_1617903</title><path class="cls-1" d="M144,49.69H64a.5.5,0,0,0-.5.5v61.07a.5.5,0,0,0,.5.5h51.08v-1H64.5v-49h79v49h-4.82v1H144a.5.5,0,0,0,.5-.5V50.19A.5.5,0,0,0,144,49.69Zm-.5,11.51h-79V50.69h79Z"/><rect class="cls-1" x="96.71" y="55.54" width="1.5" height="0.6"/><rect class="cls-1" x="93.71" y="55.54" width="1.5" height="0.6"/><rect class="cls-1" x="99.71" y="55.54" width="1.5" height="0.6"/><rect class="cls-1" x="105.71" y="55.54" width="1.5" height="0.6"/><rect class="cls-1" x="102.71" y="55.54" width="1.5" height="0.6"/><rect class="cls-1" x="108.71" y="55.54" width="1.5" height="0.6"/><rect class="cls-1" x="84.71" y="55.54" width="1.5" height="0.6"/><rect class="cls-1" x="82.55" y="55.54" width="0.66" height="0.6"/><rect class="cls-1" x="90.71" y="55.54" width="1.5" height="0.6"/><rect class="cls-1" x="87.71" y="55.54" width="1.5" height="0.6"/><rect class="cls-1" x="123.71" y="55.54" width="1.5" height="0.6"/><rect class="cls-1" x="120.71" y="55.54" width="1.5" height="0.6"/><rect class="cls-1" x="126.71" y="55.54" width="1.5" height="0.6"/><rect class="cls-1" x="111.71" y="55.54" width="1.5" height="0.6"/><rect class="cls-1" x="114.71" y="55.54" width="1.5" height="0.6"/><rect class="cls-1" x="117.71" y="55.54" width="1.5" height="0.6"/><path class="cls-1" d="M95.05,88H78.48a4.37,4.37,0,0,0,0,8.74H95.05a4.37,4.37,0,0,0,0-8.74Zm0,7.74H78.47a3.37,3.37,0,0,1,0-6.74H95a3.37,3.37,0,0,1,0,6.74Z"/><path class="cls-1" d="M129.9,88H113.33a4.37,4.37,0,0,0,0,8.74h7.08v-.37c0-.19,0-.41,0-.63h-7.1a3.37,3.37,0,0,1,0-6.74H129.9a3.37,3.37,0,0,1,0,6.74h-2.58c0,.1,0,.2,0,.3s0,.47,0,.7h2.55a4.37,4.37,0,1,0,0-8.74Z"/><path class="cls-1" d="M86.76,66.74a3.9,3.9,0,1,0,3.89,3.89A3.89,3.89,0,0,0,86.76,66.74Zm0,7.19a3.3,3.3,0,1,1,3.29-3.3A3.29,3.29,0,0,1,86.76,73.93Z"/><rect class="cls-1" x="90.35" y="80.62" width="0.6" height="3.81"/><rect class="cls-1" x="82.57" y="80.62" width="0.6" height="3.81"/><path class="cls-1" d="M79.42,80.19l.17,4.25.6,0L80,80.17a3.66,3.66,0,0,1,3.1-4.06,16.27,16.27,0,0,1,7.28,0,3.66,3.66,0,0,1,3.1,4.06l-.17,4.24.6,0,.17-4.25a4.25,4.25,0,0,0-3.56-4.67,16.93,16.93,0,0,0-7.56,0A4.25,4.25,0,0,0,79.42,80.19Z"/><path class="cls-1" d="M125.13,70.63a3.89,3.89,0,1,1-3.89-3.89A3.9,3.9,0,0,1,125.13,70.63Z"/><rect class="cls-1" x="124.83" y="80.62" width="0.6" height="0.05"/><rect class="cls-1" x="117.05" y="80.62" width="0.6" height="0.05"/><path class="cls-1" d="M113.9,80.19l.17,4.25.6,0-.17-4.24a3.66,3.66,0,0,1,3.1-4.06,16.27,16.27,0,0,1,7.28,0,3.66,3.66,0,0,1,3.1,4.06l-.17,4.24.6,0,.17-4.25A4.25,4.25,0,0,0,125,75.52a16.93,16.93,0,0,0-7.56,0A4.25,4.25,0,0,0,113.9,80.19Z"/><rect class="cls-1" x="78.47" y="100.98" width="16.57" height="0.6"/><rect class="cls-1" x="112.96" y="100.98" width="4.69" height="0.6"/><path class="cls-1" d="M134.35,114.09a8.06,8.06,0,0,1-.84,3.63l-.28.59a14.39,14.39,0,0,0-1.12,2.83c-.11.43-.31.69-1,.7h-7.65c-.42,0-.91-.16-.93-.63a10.18,10.18,0,0,0-2-5.06l-.13-.2a13.14,13.14,0,0,1-1.16-2.52,38.09,38.09,0,0,0-1.64-3.74c-.31-.63-.61-1.26-.9-1.9a3.59,3.59,0,0,1-.38-1.94,2.37,2.37,0,0,1,1.39-1.86,2.46,2.46,0,0,1,1-.23,2.36,2.36,0,0,1,1.33.4l.3.21,1,.7v-2.73c0-1.91,0-3.77,0-5.62v-.36a4.43,4.43,0,0,1,0-.64,1,1,0,0,1,0-.25,2.47,2.47,0,0,1,2.67-2,2.43,2.43,0,0,1,2.17,2.24,1.66,1.66,0,0,1,0,.32c0,.23,0,.46,0,.68,0,1.8,0,3.56,0,5.07a1.22,1.22,0,0,0,1,1.39,1.64,1.64,0,0,1,.91.6,1.41,1.41,0,0,0,1.17.56,2,2,0,0,1,1.33.55,2.16,2.16,0,0,0,1.21.48,2.43,2.43,0,0,1,2.33,2.51c0,.81,0,1.62,0,2.43C134.33,111.57,134.33,112.83,134.35,114.09Z"/><path class="cls-1" d="M128.58,80.25l-.17,4.24-.6,0,.17-4.25a3.66,3.66,0,0,0-3.1-4.06,16.27,16.27,0,0,0-7.28,0,3.66,3.66,0,0,0-3.1,4.06l.17,4.25-.6,0-.17-4.24a4.24,4.24,0,0,1,3.56-4.67,16.93,16.93,0,0,1,7.56,0A4.24,4.24,0,0,1,128.58,80.25Z"/><path class="cls-1" d="M128.54,79.19h0s0,0,0,0V79.1l-.06-.29a3.83,3.83,0,0,0-.21-.68,1,1,0,0,0-.09-.21c-.06-.13-.13-.25-.2-.37l0-.06h0l-.12-.18,0,0,0,0a3.61,3.61,0,0,0-.25-.3,1.37,1.37,0,0,0-.17-.17l-.18-.16a1.55,1.55,0,0,0-.24-.19,3,3,0,0,0-.52-.32l-.27-.14-.29-.12a6.55,6.55,0,0,0-.82-.25,16.93,16.93,0,0,0-7.56,0,6.55,6.55,0,0,0-.82.25l-.29.12-.27.14a3,3,0,0,0-.52.32,1.55,1.55,0,0,0-.24.19l-.18.16a1.37,1.37,0,0,0-.17.17,3.61,3.61,0,0,0-.25.3l0,0,0,0-.12.18h0l0,.06c-.07.12-.14.24-.2.37a1,1,0,0,0-.09.21,3.83,3.83,0,0,0-.21.68l-.06.29v.05s0,0,0,0h0c0,.12,0,.24,0,.37s0,.45,0,.69l.17,4.19v0h14.34v0l.17-4.19q0-.36,0-.69C128.57,79.43,128.56,79.31,128.54,79.19Zm-10.89,5.29h-.6V80.67h.6Zm7.78,0h-.6V80.67h.6Z"/><polyline class="cls-1" points="125.43 84.43 125.43 84.48 124.83 84.48 124.83 84.43"/></svg>