<svg id="Camada_1" data-name="Camada 1" xmlns="http://www.w3.org/2000/svg" viewBox="0 0 208 171.52"><defs><style>.cls-1{fill:#ebb300;}</style></defs><title>noun_master degrees_1617903</title><path class="cls-1" d="M107.07,76.16a5.27,5.27,0,0,0-.3,1.2,6.6,6.6,0,0,0,.1,1.4c.1.3.1.6.2.8a5.1,5.1,0,0,0,2.6,2.8,5.37,5.37,0,0,0,2.1.5,5.2,5.2,0,0,0,2.5-.7,3.13,3.13,0,0,0,1.1-.9c.3-.3.5-.7.8-1,.1-.1.1-.2.2-.3l10-21.7.4-1.2a5,5,0,0,0-2.8-5.4,5.37,5.37,0,0,0-2.1-.5A5.32,5.32,0,0,0,118,53a4.13,4.13,0,0,0-.7,1.1h0l-10,21.7C107.17,76,107.07,76.06,107.07,76.16Z"/><path class="cls-1" d="M111.57,52.26a5.58,5.58,0,0,1,.5.8,5.67,5.67,0,0,1,0,2.6,7.37,7.37,0,0,1-.4,1.4c-.1.2-.1.3-.2.5a5.9,5.9,0,0,1-.4.8c-1.4,2.7-4.8,7.2-13,7.5h0L94.67,73a24.4,24.4,0,0,1,9.2,4.3L115,53.06a5.64,5.64,0,0,0,.4-1.2,5,5,0,0,0-2.8-5.4,5.37,5.37,0,0,0-2.1-.5,5.32,5.32,0,0,0-3.9,1.8,4.13,4.13,0,0,0-.7,1.1h0l-1.4,3.1h6.8Z"/><path class="cls-1" d="M98.37,52h3.3l1.9-4.1a5.64,5.64,0,0,0,.4-1.2,5,5,0,0,0-2.8-5.4,5.45,5.45,0,0,0-2.2-.5,5.32,5.32,0,0,0-3.9,1.8,4.13,4.13,0,0,0-.7,1.1h0L90.57,52Z"/><path class="cls-1" d="M114.17,110.06a5.3,5.3,0,1,0-5.3,5.3A5.21,5.21,0,0,0,114.17,110.06Z"/><path class="cls-1" d="M133.77,70.66a8.92,8.92,0,0,0-.3-1.7,5,5,0,0,0-4.7-3.3,5.07,5.07,0,0,0-1.3.2,4.35,4.35,0,0,0-1.9,1,5.11,5.11,0,0,0-1.5,2.1h0l-6.2,13.5a2.66,2.66,0,0,0-.3,1.2v.4a3.36,3.36,0,0,0,1.9,2.8,3.23,3.23,0,0,0,1.7.3,3.67,3.67,0,0,0,2-.9,2.18,2.18,0,0,0,.7-.9l3.2-7,2.3,1,.2-.5-3.4,7.3h0c-.1.1-.1.2-.2.3a3,3,0,0,1-.5.7,6.79,6.79,0,0,1-1.2,1.2,5.1,5.1,0,0,1-3.1,1.1h-.3a7.42,7.42,0,0,1-2.5-.5,5.11,5.11,0,0,1-2.6-2.4,4.42,4.42,0,0,1-.6-1.6c0-.2-.1-.4-.1-.6a6.12,6.12,0,0,1-1.2.5,7.8,7.8,0,0,1-2.2.3,9.26,9.26,0,0,1-2.3-.4,16,16,0,0,1,.8,5.1v9.5h-2.5v-9.5a14.15,14.15,0,0,0-1.4-5.8c-3.4-7.7-13.2-9-13.7-9.1l-1.7-.2,5.5-11.5h1.4a6.15,6.15,0,0,0,1.4-.1c4.8-.5,7.4-2.7,8.8-4.6.1-.2.2-.3.3-.5.2-.4.5-.8.6-1.1a6.12,6.12,0,0,0,.5-1.2,5,5,0,0,0,.3-1.4H89a7,7,0,0,0-5.9,3.3,10.09,10.09,0,0,0-.7,1.5l-6.5,13.9-.3.7a7.51,7.51,0,0,0-.5,2.6,6.65,6.65,0,0,0,.9,3.4l.7,1,16,21.1v28.9h32.5v-21.2l7.9-16.2.3-.6a4.67,4.67,0,0,0,.3-1.7C133.77,91,133.77,70.66,133.77,70.66Zm-19.5,51.4v2.2h-4.2v3.9h-2.2v-3.9h-4v-2.2h4v-4.5a7.49,7.49,0,1,1,8.6-7.4,7.45,7.45,0,0,1-6.4,7.4v4.5Z"/></svg>