<svg id="Camada_1" data-name="Camada 1" xmlns="http://www.w3.org/2000/svg" viewBox="0 0 208 171.52"><defs><style>.cls-1{fill:#ebb300;}</style></defs><title>noun_master degrees_1617903</title><path class="cls-1" d="M107.4,82.08a.36.36,0,0,0-.09-.28l-.09-.09a15.26,15.26,0,0,1-1.28,2,1.37,1.37,0,0,1-.18.55c0,.09-.09.27,0,.36.55.73.73,1.1.45,1.64.28-.27.55-.64.83-.91h0a1.76,1.76,0,0,1,.54-1.18A1.56,1.56,0,0,1,107.4,82.08Zm-5.84-22.34-.09-.09a1.14,1.14,0,0,1-.54.09,8.32,8.32,0,0,1,1,.55A2.41,2.41,0,0,1,101.56,59.74Zm5.84,22.34a.36.36,0,0,0-.09-.28l-.09-.09a15.26,15.26,0,0,1-1.28,2,1.37,1.37,0,0,1-.18.55c0,.09-.09.27,0,.36.55.73.73,1.1.45,1.64.28-.27.55-.64.83-.91h0a1.76,1.76,0,0,1,.54-1.18A1.56,1.56,0,0,1,107.4,82.08Zm-6-22.43a1.16,1.16,0,0,1-.55.09,8.5,8.5,0,0,1,1,.55,2.12,2.12,0,0,1-.37-.55C101.47,59.65,101.47,59.65,101.38,59.65Zm2.74,36.74h-1.37V89.28c.55-.36,1.09-.73,1.55-1.09a11.9,11.9,0,0,0,1.91-1.83h0c.28-.27.55-.63.83-.91h0a18.12,18.12,0,0,0,1.91-3.1c.18-.36.27-.64.46-1a12,12,0,0,1,1-1.92,7.86,7.86,0,0,1-.09-1v-.09a14.56,14.56,0,0,0,.36-1.91v-.19a18,18,0,0,0,.18-2.28,18.56,18.56,0,0,0-1.73-7.84,9.79,9.79,0,0,0-.91-1.73A17.34,17.34,0,0,0,104.48,60c-.18-.18-.45-.36-.64-.54a1.83,1.83,0,0,1-.45-.37h-.09a12.47,12.47,0,0,0-2.37-1.37h0c-.19-.09-.46-.18-.64-.27h0a10.94,10.94,0,0,0-1.83-.64,10.45,10.45,0,0,0-1.64-.36h0a3.45,3.45,0,0,0-.91-.09h0a3.62,3.62,0,0,0-1.46-.19,15.81,15.81,0,0,0-11.39,4.93h0a13.39,13.39,0,0,0-1.19,1.37c-.18.18-.27.36-.46.54A18.39,18.39,0,0,0,78,73.87a16.74,16.74,0,0,0,.55,4.38,6.42,6.42,0,0,1,1,1.91,1.78,1.78,0,0,1,.18.73,7.7,7.7,0,0,1,.09,2c.09-.27.09-.55.18-.73.19.27.28.55.46.82l.27.55a18.25,18.25,0,0,0,1.55,2.09,14.88,14.88,0,0,0,2.1,2.1c.09.09.28.18.37.28.45.36.91.72,1.46,1.09v7.11H85.7a17,17,0,0,0-3,.27,17.42,17.42,0,0,0-4.19,1.37h0c-.1,0-.1.09-.19.09h0c-7.29,3.47-12.49,11.77-12.49,21.25v8.93a.87.87,0,0,0,.91.92h55.53a.86.86,0,0,0,.91-.92v-8.93C123.08,107.24,114.51,97,104.12,96.39ZM84.42,85.63l-.09-.09a17.71,17.71,0,0,1-2.83-4,19.45,19.45,0,0,1-1.55-5h.28A3.08,3.08,0,0,1,80,74.69h-.18V74a16.67,16.67,0,0,1,1.73-7.38h0l.28-.55h0c.18-.36.45-.73.64-1.09a12.32,12.32,0,0,1,1.27-1.74v-.09h0a14.25,14.25,0,0,1,10.67-4.92,14.57,14.57,0,0,1,4.38.73h.18a16.64,16.64,0,0,1,1.91.82,8.5,8.5,0,0,1,1,.55h0a5.77,5.77,0,0,1,.73.54c.09,0,.09.1.18.1A2.62,2.62,0,0,1,104.12,62a4.27,4.27,0,0,1,.45.91c.09-.09.09-.18.19-.27A16.51,16.51,0,0,1,109.13,74a4.54,4.54,0,0,1-.09,1.1c-.09,0-.09,0-.18-.09v.27c0,.18-.09.36-.09.55a3.72,3.72,0,0,1,0,1V77c-.09.37-.18.82-.28,1.19v.09a12,12,0,0,1-1.36,3.55A20.71,20.71,0,0,1,104,86l-.28.27a13.75,13.75,0,0,1-16.87,1.55A25.49,25.49,0,0,1,84.42,85.63Zm16.51,4.65v6.48l-.28.18a11.7,11.7,0,0,1-12.4,0l-.36-.18V90.28a15.47,15.47,0,0,0,6.47,1.46A15.65,15.65,0,0,0,100.93,90.28Zm20.33,37.11H111v-3.73a.92.92,0,1,0-1.83,0v3.73H79.77v-3.73a.91.91,0,1,0-1.82,0v3.73H67.55v-8c0-11.21,8.39-21.15,18.06-21.15h1.27l.46.27a13.33,13.33,0,0,0,7.11,2,14,14,0,0,0,7.21-2.1l.36-.27h1.19c9.57,0,18.05,9.84,18.05,21.15Zm-19.7-67.65-.09-.09a1.14,1.14,0,0,1-.54.09,8.32,8.32,0,0,1,1,.55A2.41,2.41,0,0,1,101.56,59.74Zm5.84,22.34a.36.36,0,0,0-.09-.28l-.09-.09a15.26,15.26,0,0,1-1.28,2,1.37,1.37,0,0,1-.18.55c0,.09-.09.27,0,.36.55.73.73,1.1.45,1.64.28-.27.55-.64.83-.91h0a1.76,1.76,0,0,1,.54-1.18A1.56,1.56,0,0,1,107.4,82.08Z"/><path class="cls-1" d="M97.64,56.09a2,2,0,0,1-2.37-.64.68.68,0,0,0-.36-.18,1.87,1.87,0,0,1-2.46-.55,1.88,1.88,0,0,1-2.65.1c-.18.09-.27.27-.45.36a1.66,1.66,0,0,1-1.92.27c-.18-.09-.36-.09-.45.1a2,2,0,0,1-2,.82c-.27-.1-.36,0-.55.27a1.82,1.82,0,0,1-1.91,1.09c-.18,0-.37,0-.46.28a1.88,1.88,0,0,1-2,1.46H80c0,.09-.09.27-.09.36a1.73,1.73,0,0,1-1.46,1.46c-.27.09-.45.18-.45.55a1.75,1.75,0,0,1-1.19,1.73c-.27.09-.36.18-.27.55A1.77,1.77,0,0,1,75.76,66c-.27.18-.36.37-.18.64a1.67,1.67,0,0,1-.37,2,.38.38,0,0,0,0,.63,1.54,1.54,0,0,1,0,2.1c.82,1.09.82,1.28.37,2.28.18.18.27.36.45.55a1.57,1.57,0,0,1,.1,1.55.25.25,0,0,0,0,.36,1.62,1.62,0,0,1,.18,2.28,1.59,1.59,0,0,1,0,2.46.71.71,0,0,1,.18.37,1.52,1.52,0,0,1-.27,1.91.72.72,0,0,0-.19.46,1.63,1.63,0,0,1-.63,2.1.5.5,0,0,0-.1.36,1.5,1.5,0,0,1-1,1.92c-.18.09-.27.18-.45.27a1,1,0,0,1-1.37,0,1,1,0,0,1-.09-1.37c.18-.27.64-.36.73-.73s-.09-.73,0-1A7.63,7.63,0,0,1,73.85,84a1.49,1.49,0,0,1,.54-2,1.7,1.7,0,0,1,.09-2.28,1.68,1.68,0,0,1-.27-2.19.33.33,0,0,0-.09-.27,1.55,1.55,0,0,1-.18-2.1,1.57,1.57,0,0,1-.37-2.37,1.54,1.54,0,0,1-.18-2.46c-.09-.19-.27-.37-.36-.55a1.67,1.67,0,0,1,.27-2,.76.76,0,0,0,.18-.73,1.75,1.75,0,0,1,.64-2.28.7.7,0,0,0,.27-.63,1.64,1.64,0,0,1,1.1-2.1.5.5,0,0,0,.36-.55c0-1.09.46-1.55,1.55-1.91a.59.59,0,0,0,.46-.46,1.64,1.64,0,0,1,1.73-1.55.8.8,0,0,0,.64-.45,1.72,1.72,0,0,1,1.91-1.28.68.68,0,0,0,.64-.37,1.73,1.73,0,0,1,2.19-1,.61.61,0,0,0,.55-.18,1.66,1.66,0,0,1,2.19-.82.68.68,0,0,0,.72-.09,1.7,1.7,0,0,1,2.28-.28c.28.19.46.19.64,0a1.7,1.7,0,0,1,2.28.09.6.6,0,0,0,.73.19,1.6,1.6,0,0,1,2.19.54c.18.19.27.28.55.19a1.67,1.67,0,0,1,2.18.91c.1.27.28.27.55.27,1.1-.09,1.55.28,2,1.28.09.09.27.27.36.27a1.9,1.9,0,0,1,2,1.64c0,.09.18.19.27.28.28.09.55.09.73.18a1.73,1.73,0,0,1,1,1.55,1.74,1.74,0,0,0,.19.64,1,1,0,0,1-.46,1.27.92.92,0,0,1-1.28-.36,3.29,3.29,0,0,1-.36-1c-.09-.19-.09-.37-.37-.37a1.76,1.76,0,0,1-1.64-1.46c0-.18-.09-.27-.36-.27a1.86,1.86,0,0,1-1.82-1.28.42.42,0,0,0-.28-.27,1.86,1.86,0,0,1-2.1-1.19A.09.09,0,0,1,97.64,56.09Z"/><path class="cls-1" d="M101.47,59.65A2,2,0,0,1,99.1,59c-.09-.09-.27-.18-.36-.09a1.9,1.9,0,0,1-2.46-.55,1.88,1.88,0,0,1-2.65.09c-.18.09-.27.28-.45.37a1.69,1.69,0,0,1-1.92.27c-.18-.09-.36-.09-.45.09a2,2,0,0,1-2,.82c-.27-.09-.37,0-.55.28a1.82,1.82,0,0,1-1.91,1.09c-.18,0-.37,0-.46.27a1.87,1.87,0,0,1-2,1.46h-.1c0,.09-.09.28-.09.37a1.74,1.74,0,0,1-1.46,1.46c-.27.09-.45.18-.45.54a1.76,1.76,0,0,1-1.19,1.74c-.18,0-.18.18-.18.45a1.79,1.79,0,0,1-.73,1.92c-.27.18-.36.36-.18.64a1.66,1.66,0,0,1-.37,2,.39.39,0,0,0,0,.64,1.54,1.54,0,0,1,0,2.1c.82,1.09.82,1.27.37,2.28.18.18.27.36.45.54a1.57,1.57,0,0,1,.1,1.55.27.27,0,0,0,0,.37A1.6,1.6,0,0,1,80.23,82a1.59,1.59,0,0,1,0,2.46.68.68,0,0,1,.18.36,1.53,1.53,0,0,1-.27,1.92.69.69,0,0,0-.19.45,1.63,1.63,0,0,1-.63,2.1.57.57,0,0,0-.09.37,1.5,1.5,0,0,1-1,1.91c-.18.09-.27.18-.45.27a1,1,0,0,1-1.37,0,1,1,0,0,1-.09-1.36c.18-.28.64-.37.73-.73s-.09-.73,0-1a8.05,8.05,0,0,1,.73-1.18,1.51,1.51,0,0,1,.54-2,1.7,1.7,0,0,1,.09-2.28,1.67,1.67,0,0,1-.27-2.18A.34.34,0,0,0,78,80.8a1.55,1.55,0,0,1-.18-2.1,1.57,1.57,0,0,1-.37-2.37,1.54,1.54,0,0,1-.18-2.46c-.09-.18-.27-.36-.36-.54a1.67,1.67,0,0,1,.27-2,.77.77,0,0,0,.18-.73A1.75,1.75,0,0,1,78,68.31a.71.71,0,0,0,.27-.64,1.63,1.63,0,0,1,1.1-2.09.51.51,0,0,0,.36-.55c0-1.1.46-1.55,1.55-1.92a.58.58,0,0,0,.46-.45,1.63,1.63,0,0,1,1.73-1.55c.27,0,.46-.18.64-.46a1.73,1.73,0,0,1,1.91-1.28A.68.68,0,0,0,86.7,59a1.72,1.72,0,0,1,2.19-1c.27,0,.37,0,.55-.19a1.63,1.63,0,0,1,2.19-.72.68.68,0,0,0,.73-.1,1.67,1.67,0,0,1,2.27-.27c.28.18.46.18.64,0a1.68,1.68,0,0,1,2.28.09.67.67,0,0,0,.82.09,1.61,1.61,0,0,1,2.19.55c.18.18.27.27.55.18a1.69,1.69,0,0,1,2.19.91c.09.28.27.28.54.28,1.1-.09,1.55.27,2,1.27.09.1.27.28.36.28a1.89,1.89,0,0,1,2,1.64c0,.09.18.18.27.27a5.4,5.4,0,0,1,.73.19,1.73,1.73,0,0,1,1,1.55,1.67,1.67,0,0,0,.18.63,1,1,0,0,1-.46,1.28.92.92,0,0,1-1.27-.36,3.11,3.11,0,0,1-.37-1c-.09-.18-.09-.36-.36-.36a1.75,1.75,0,0,1-1.64-1.46c-.1-.27-.19-.37-.37-.37a1.85,1.85,0,0,1-1.82-1.27.43.43,0,0,0-.28-.28,1.89,1.89,0,0,1-2.09-1.18Z"/><path class="cls-1" d="M113.87,68c-.09.09-.18.18-.27.18a.93.93,0,0,1-1.28-.37,3.19,3.19,0,0,1-.36-1c-.09-.18-.09-.36-.37-.36a.74.74,0,0,1-.45-.1,1.6,1.6,0,0,1-1-.72,3.93,3.93,0,0,1-.28-.64c-.09-.28-.18-.37-.36-.37a1.86,1.86,0,0,1-1.19-.36,2.46,2.46,0,0,1-.64-.91.4.4,0,0,0-.27-.28,2.55,2.55,0,0,1-1.19-.18,1.19,1.19,0,0,1-.63-.55,1.66,1.66,0,0,1-.28-.45l-.09-.09a2,2,0,0,1-.73.09h-.27a1.63,1.63,0,0,1-1.37-.82c-.09-.09-.27-.19-.36-.09a2,2,0,0,1-2.47-.46,1.87,1.87,0,0,1-2.64.09c-.18.09-.27.27-.46.37A1.67,1.67,0,0,1,95,61.2c-.18-.09-.37-.09-.46.09a2,2,0,0,1-2,.82c-.28-.09-.37,0-.55.27a1.83,1.83,0,0,1-1.91,1.1c-.19,0-.37,0-.46.18a1.89,1.89,0,0,1-2,1.46h-.09c0,.09-.09.27-.09.36a1.75,1.75,0,0,1-1.37,1.46c-.27.09-.45.19-.45.55a1.87,1.87,0,0,1-1.19,1.73c-.27.09-.36.18-.27.55a1.72,1.72,0,0,1-.73,1.91c-.27.19-.37.28-.18.64a1.85,1.85,0,0,1-.37,2c-.18.18-.18.36,0,.64a1.53,1.53,0,0,1,0,2.09c.82,1.1.82,1.28.37,2.28.09.19.27.28.36.46l.09.09a1.81,1.81,0,0,1,.19,1.37c0,.09-.1.18-.1.27a.29.29,0,0,0,0,.37c.1.09.19.18.19.27a1.35,1.35,0,0,1,.27,1.37,4.1,4.1,0,0,0-.27.64c.18.18.27.36.45.54a2.78,2.78,0,0,1,.19.82v.09a2,2,0,0,1-.55,1c.09.18.18.27.18.36a1.72,1.72,0,0,1,.18.64A1.43,1.43,0,0,1,84,88.92a.69.69,0,0,0-.19.45,1.63,1.63,0,0,1-.63,2.1.54.54,0,0,0-.09.36,1.51,1.51,0,0,1-1,1.92c-.18.09-.27.18-.45.27a1,1,0,0,1-.73.28.8.8,0,0,1-.64-.28,1,1,0,0,1-.09-1.36c.18-.28.64-.46.73-.73s-.09-.73,0-1a2,2,0,0,1,.27-.45,6.92,6.92,0,0,0,.55-.73c0-.09-.09-.18-.09-.28a1.42,1.42,0,0,1,0-.91,2.09,2.09,0,0,1,.63-.91,1.58,1.58,0,0,1,.1-2.19l.09-.09a1.68,1.68,0,0,1-.28-2.19.33.33,0,0,0-.09-.27,1.48,1.48,0,0,1-.45-1.55c.09-.18.09-.37.27-.55a1.58,1.58,0,0,1-.37-2.37A1.54,1.54,0,0,1,81.32,76a1.92,1.92,0,0,1-.36-.55,1.64,1.64,0,0,1,.27-2c.18-.28.27-.46.18-.73a1.74,1.74,0,0,1,.64-2.28c.18-.18.37-.28.28-.64a1.64,1.64,0,0,1,1.09-2.1.49.49,0,0,0,.36-.54,1.74,1.74,0,0,1,1.55-1.92.58.58,0,0,0,.46-.46,1.65,1.65,0,0,1,1.73-1.55c.28,0,.46-.18.64-.45a1.74,1.74,0,0,1,1.92-1.28.68.68,0,0,0,.63-.36,1.82,1.82,0,0,1,2.19-1c.28,0,.37,0,.55-.18a1.57,1.57,0,0,1,2.19-.73.7.7,0,0,0,.73-.09,2.58,2.58,0,0,1,.64-.45,1.55,1.55,0,0,1,1.64.18l.09.09a.42.42,0,0,0,.54-.09h0a1.68,1.68,0,0,1,2.28.09.89.89,0,0,0,.82.18,1.5,1.5,0,0,1,1.37-.09h.09a1.89,1.89,0,0,1,.73.73c.09.18.19.18.37.18h.18a2.84,2.84,0,0,1,.82-.09,1.55,1.55,0,0,1,1.19.73c.09.09.09.18.18.27.09.28.27.28.55.28H108a1.61,1.61,0,0,1,1.82,1.27c.09.1.18.28.37.28a1.75,1.75,0,0,1,1.91,1.64c0,.09.18.18.27.27.28.09.46.09.73.18a1.76,1.76,0,0,1,1,1.55,1.67,1.67,0,0,0,.18.64A8.83,8.83,0,0,1,113.87,68Z"/><path class="cls-1" d="M114.24,74a1.6,1.6,0,0,0-.18-2.28.25.25,0,0,1,0-.36,1.37,1.37,0,0,0-.1-1.55,2.42,2.42,0,0,0-.45-.55c.45-1.09.45-1.27-.37-2.28a2.4,2.4,0,0,0,.37-.73,4.4,4.4,0,0,1-2.19-.09,1.63,1.63,0,0,0,.37,2.28,1.71,1.71,0,0,0,.36,2.37,1.54,1.54,0,0,0,.18,2.1.33.33,0,0,1,.09.27,1.7,1.7,0,0,0,.28,2.19,1.59,1.59,0,0,0-.09,2.28,1.55,1.55,0,0,0-.55,2,6,6,0,0,0-.73,1.18c-.09.28.09.73,0,1s-.55.46-.73.73a1,1,0,0,0,.09,1.37,1,1,0,0,0,1.37,0,2,2,0,0,1,.45-.27,1.54,1.54,0,0,0,1-1.92.54.54,0,0,1,.09-.36,1.61,1.61,0,0,0,.64-2.1,1,1,0,0,1,.18-.45,1.51,1.51,0,0,0,.27-1.92c-.09-.09-.09-.18-.18-.36A2,2,0,0,0,114.24,74Z"/><path class="cls-1" d="M108.59,78.16c.09-.37.18-.82.27-1.19A2.38,2.38,0,0,1,108.59,78.16Z"/><path class="cls-1" d="M109.13,87.64a.69.69,0,0,0-.18.46,1.6,1.6,0,0,1-.64,2.09.57.57,0,0,0-.09.37,1.5,1.5,0,0,1-1,1.91c-.18.09-.28.19-.46.28a1,1,0,0,1-1,.18c-.18-.09-.28-.09-.37-.18a1,1,0,0,1-.09-1.37c.18-.27.64-.46.73-.73s-.09-.73,0-1a4.71,4.71,0,0,1,.82-1.19,1.53,1.53,0,0,1,.55-2,1.78,1.78,0,0,1-.36-1.1h0a1.76,1.76,0,0,1,.54-1.18,1.56,1.56,0,0,1-.27-2.1.36.36,0,0,0-.09-.28v-.09a21.64,21.64,0,0,0,1.37-3.55,2.85,2.85,0,0,1,.45.54,1.36,1.36,0,0,1,.09,1.55.29.29,0,0,0,0,.37c.18.27.37.46.46.64.27.54.18.91-.28,1.64a1.59,1.59,0,0,1,0,2.46c.1.18.19.27.19.37A1.66,1.66,0,0,1,109.13,87.64Z"/><path class="cls-1" d="M105.94,91.65a.72.72,0,0,0-.18.46,4,4,0,0,1,.18.91c0,.46-.27.73-.73,1.19-.18,0-.18.18-.18.27a1.56,1.56,0,0,1-.91,1.91H104c-.19.09-.28.19-.46.28a1,1,0,0,1-1.46-1.37,2.84,2.84,0,0,1,.64-.46l.18-.18c.09-.27-.09-.73,0-1a8.48,8.48,0,0,1,.73-1.19,1.51,1.51,0,0,1,.55-2,1.6,1.6,0,0,1,.18-2.28h0a1.46,1.46,0,0,1-.18-2.1v-.18A10.71,10.71,0,0,0,106,83.72a1.37,1.37,0,0,1-.18.55c0,.09-.09.27,0,.36.55.73.73,1.1.46,1.64h0a3.93,3.93,0,0,0-.28.64,1.59,1.59,0,0,1,0,2.46c.09.09.09.19.18.28v.09A1.5,1.5,0,0,1,105.94,91.65Z"/><path class="cls-1" d="M83.88,81.35A1.31,1.31,0,0,1,83.6,80l.09.09A1.54,1.54,0,0,1,83.88,81.35Z"/><path class="cls-1" d="M84,82.26a1.35,1.35,0,0,1,.27,1.37A1.24,1.24,0,0,1,84,82.26Z"/><path class="cls-1" d="M87,90.28a1.53,1.53,0,0,1-.28,1.92.69.69,0,0,0-.18.46,1.48,1.48,0,0,1-.36,1.82c-.1.09-.19.18-.28.18a.55.55,0,0,0-.09.37,1.69,1.69,0,0,1-.09,1.18,1.92,1.92,0,0,1-.91.73c-.18.09-.28.18-.46.27a1,1,0,0,1-1.37,0,.76.76,0,0,1-.27-.73,1.67,1.67,0,0,1,.18-.63c.19-.28.64-.46.73-.73s-.09-.73,0-1a8.39,8.39,0,0,1,.73-1.18,1.52,1.52,0,0,1,.55-2A1.57,1.57,0,0,1,85,88.73a3.15,3.15,0,0,1-.46-.63,1.42,1.42,0,0,1,.19-1.46.36.36,0,0,0-.09-.28,1.47,1.47,0,0,1-.37-.45.31.31,0,0,0-.09-.18,1,1,0,0,1,0-.73,2.63,2.63,0,0,1,.18.82,13.93,13.93,0,0,0,2.55,2.09,1.67,1.67,0,0,1-.18,2.19C86.79,90,86.88,90.1,87,90.28Z"/><path class="cls-1" d="M81,87.91a1.62,1.62,0,0,0-.18-2.28.25.25,0,0,1,0-.36,1.37,1.37,0,0,0-.1-1.55,2.42,2.42,0,0,0-.45-.55c.45-1.09.45-1.27-.37-2.28a2.4,2.4,0,0,0,.37-.73A4.4,4.4,0,0,1,78,80.07a1.64,1.64,0,0,0,.36,2.28,1.72,1.72,0,0,0,.37,2.37,1.54,1.54,0,0,0,.18,2.1.33.33,0,0,1,.09.27,1.7,1.7,0,0,0,.28,2.19,1.59,1.59,0,0,0-.09,2.28,1.55,1.55,0,0,0-.55,2A5.59,5.59,0,0,0,78,94.75c-.09.28.09.73,0,1s-.55.45-.73.72a1,1,0,0,0,.09,1.37,1,1,0,0,0,1.37,0,2,2,0,0,1,.45-.27,1.54,1.54,0,0,0,1-1.92.54.54,0,0,1,.09-.36,1.61,1.61,0,0,0,.64-2.1,1,1,0,0,1,.18-.45,1.51,1.51,0,0,0,.27-1.92c-.09-.09-.09-.18-.18-.36A1.78,1.78,0,0,0,81,87.91Z"/><path class="cls-1" d="M164.1,98.28h-.43V91.89a15.49,15.49,0,0,0,5.6-6.28h0A19.51,19.51,0,0,1,170.59,83c0-.54-.05-.89-.05-.9s0,0,0-.06c.13-.56.23-1.13.31-1.71a.14.14,0,0,1,0-.06s0,0,0-.07a16.68,16.68,0,0,0,.14-2c0-8.75-6.63-15.87-14.78-15.87s-14.78,7.12-14.78,15.87a17,17,0,0,0,.48,3.94v0A5.85,5.85,0,0,1,143,86.34c.05-.23.1-.46.14-.68a15.52,15.52,0,0,0,5.58,6.23v6.39h-.43c-9.64,0-17.78,9.41-17.78,20.55v8a.82.82,0,0,0,.82.82h49.69a.82.82,0,0,0,.81-.82v-8C181.87,107.69,173.73,98.28,164.1,98.28Zm-20.85-17.8.24,0a3.91,3.91,0,0,1-.26-1.62l-.13,0c0-.21,0-.42,0-.63C143.07,70.37,149,64,156.21,64a12.35,12.35,0,0,1,7.47,2.56,2.93,2.93,0,0,1,1.61,1.77l.15-.22a14.84,14.84,0,0,1,3.91,10.13c0,.32,0,.65,0,1l-.17-.06a1.23,1.23,0,0,1,0,.27,3.54,3.54,0,0,1-.07.5,3.08,3.08,0,0,1,0,.91h0c-1.13,6.61-6.48,11.63-12.91,11.63S144.26,87.26,143.25,80.48ZM162,92.79v5.78l-.27.17a10.37,10.37,0,0,1-11.06,0l-.32-.19V92.8a13.85,13.85,0,0,0,11.65,0ZM180.24,126H171v-3.31a.82.82,0,0,0-.82-.82.82.82,0,0,0-.81.82V126H143.07v-3.31a.82.82,0,0,0-.82-.82.82.82,0,0,0-.81.82V126h-9.26v-7.2c0-10.08,7.55-18.92,16.15-18.92h1.13l.38.24a12,12,0,0,0,12.8,0l.33-.21h1.12c8.6,0,16.15,8.84,16.15,18.91Z"/><path class="cls-1" d="M189.44,94.11a3.79,3.79,0,0,0-3.13-3.73,3.78,3.78,0,0,0,1-2.58,3.84,3.84,0,0,0-1.2-2.77,3.87,3.87,0,0,0,.23-1.28,3.75,3.75,0,0,0-.82-2.33s0-.06,0-.1a3.73,3.73,0,0,0-.17-1.06s0,0,0-.07a3.77,3.77,0,0,0-.89-2.42,3.75,3.75,0,0,0,.24-1.3,3.79,3.79,0,0,0-.2-1.18c0-.15,0-.29,0-.44a3.81,3.81,0,0,0-3.8-3.81h-.09s0-.06,0-.09a3.79,3.79,0,0,0-1.51-3,3.69,3.69,0,0,0,.21-1.2,3.77,3.77,0,0,0-5.15-3.54,3.38,3.38,0,0,0-.11-.34,3.75,3.75,0,0,0,.24-1.3,3.8,3.8,0,0,0-3.56-3.78,3.8,3.8,0,0,0-3-1.48,3.68,3.68,0,0,0-1.86.51,5.24,5.24,0,0,0-4.3-3.26,3.79,3.79,0,0,0-3.27,1.9,3.77,3.77,0,0,0-5.48,2.7l-.1.06a3.79,3.79,0,0,0-7.25,1.57,3.73,3.73,0,0,0,.49,1.85,4.17,4.17,0,0,0-.14.72,3.54,3.54,0,0,0-2.53.48A3.78,3.78,0,0,0,138,66.27a3.94,3.94,0,0,0,.26,1.38h0a3.75,3.75,0,0,0-3.6,5,3.76,3.76,0,0,0-.83,2.19,3.8,3.8,0,0,0-3.26,3.75,3.7,3.7,0,0,0,.57,2,3.77,3.77,0,0,0-.73,2.23,3.89,3.89,0,0,0,.3,1.49,3.8,3.8,0,0,0-2.41,3.53,3.11,3.11,0,0,0,0,.32c0,.11,0,.22,0,.33a3.73,3.73,0,0,0,.94,2.47,3.8,3.8,0,0,0,1.26,6.91,3.79,3.79,0,0,0,2.9,6.24h.13c.13.08.27.15.41.22a3.8,3.8,0,0,0,1.49,2.17,3.79,3.79,0,0,0,3.69,3.76,3.79,3.79,0,1,0,6.66-2.9,3.73,3.73,0,0,0,0-4.86,3.79,3.79,0,0,0,.9-2.43c0-.11,0-.23,0-.34a3.8,3.8,0,0,0,2.71-3.62,3.84,3.84,0,0,0-.6-2,3.6,3.6,0,0,0,.11-.88,3.78,3.78,0,0,0-2.25-3.46,3.78,3.78,0,0,0-.83-1.8,3.73,3.73,0,0,0,0-4.86,3.75,3.75,0,0,0-1.1-5.75,3.57,3.57,0,0,0-.45-.27,4,4,0,0,0,.1-.86,3.78,3.78,0,0,0-1.19-2.75,3.79,3.79,0,0,0,2.48-3.5,3.79,3.79,0,0,0,3.53-3.44,4.07,4.07,0,0,0,.6.06,3.8,3.8,0,0,0,3.25-1.84,3.74,3.74,0,0,0,1.93.55,3.83,3.83,0,0,0,2.8-1.24A3.79,3.79,0,0,0,161,66a3.86,3.86,0,0,0,1.35-.26A3.79,3.79,0,0,0,166,68.61a3.73,3.73,0,0,0-.07,4.94,3.73,3.73,0,0,0,0,4.86,3.73,3.73,0,0,0,0,4.86,3.72,3.72,0,0,0-.07,4.77s0,.07.05.1a3.76,3.76,0,0,0-1,1.21,3.81,3.81,0,0,0-3.65,3.79,3.62,3.62,0,0,0,.18,1.1c0,.07,0,.13,0,.2A3.79,3.79,0,0,0,163,97.52a3.68,3.68,0,0,0-.29,1.45,3.79,3.79,0,0,0,2.69,3.62,4.67,4.67,0,0,0,6.53,6.67,3.76,3.76,0,0,0,5.07-.05,2.2,2.2,0,0,0,.36,0,3.81,3.81,0,0,0,3.25-1.85,3.58,3.58,0,0,0,.26-.29c.13,0,.25,0,.37,0a5.56,5.56,0,0,0,4.62-4.62,3.65,3.65,0,0,0-.15-1,3.8,3.8,0,0,0,2.09-3.38,3.43,3.43,0,0,0-.11-.86A3.8,3.8,0,0,0,189.44,94.11ZM177.1,92.68a1.5,1.5,0,0,0,.2,0,2.77,2.77,0,0,0,0,.3Z"/><path class="cls-1" d="M45.86,104.19h-.33V99.06A12.7,12.7,0,0,0,50.08,94h0a21.82,21.82,0,0,1,1.05-2.11,6.27,6.27,0,0,1-.06-.73v-.06a11.16,11.16,0,0,0,.26-1.38v-.14a12,12,0,0,0,.13-1.64c0-7.05-5.33-12.78-11.92-12.78S27.62,80.88,27.62,87.93a12,12,0,0,0,.4,3.16h0A5.76,5.76,0,0,1,28.87,93a5.57,5.57,0,0,1,.07,1.45,3.74,3.74,0,0,1,.13-.53,12.67,12.67,0,0,0,4.48,5v5.13h-.33c-7.77,0-14.36,7.58-14.36,16.6v6.45a.62.62,0,0,0,.66.66H59.63a.62.62,0,0,0,.66-.66v-6.45C60.22,111.77,53.63,104.19,45.86,104.19ZM29.07,89.84h.2a2.2,2.2,0,0,1-.2-1.32h-.13V88c0-6.32,4.74-11.46,10.6-11.46a10.26,10.26,0,0,1,6.06,2A2.41,2.41,0,0,1,46.92,80c.06-.06.06-.13.13-.19A11.91,11.91,0,0,1,50.21,88a3,3,0,0,1-.07.79c-.06,0-.06,0-.13-.06v.2c0,.13-.06.26-.06.39A2.89,2.89,0,0,1,50,90h0c-.93,5.41-5.27,9.49-10.47,9.49S29.86,95.3,29.07,89.84Zm15.15,9.94v4.68l-.2.13a8.47,8.47,0,0,1-9,0l-.26-.13V99.78a11,11,0,0,0,9.42,0ZM58.9,126.59H51.46v-2.7a.66.66,0,0,0-1.32,0v2.7H28.94v-2.7a.66.66,0,0,0-1.32,0v2.7H20.11v-5.8c0-8.1,6.06-15.28,13-15.28h.92l.33.2a9.63,9.63,0,0,0,5.14,1.45,10.07,10.07,0,0,0,5.2-1.52l.27-.19h.85c6.92,0,13,7.11,13,15.27Z"/><path class="cls-1" d="M60.29,83c.33-1.52-.66-3.43-2.18-3.36A5.47,5.47,0,0,0,59,73.9c-.2-.86-1.72-1.38-1.72-1.38s1.12-2.18.66-3.43a3.17,3.17,0,0,0-3.88-1.84c.52-1.91.52-4.09-.86-5.6S49,60.2,48.23,62A4.08,4.08,0,0,0,45.86,58a4.46,4.46,0,0,0-4.61.66,4.21,4.21,0,0,0-7.64.85c-2-.59-4.28-1.12-6.32-.46s-3.56,3.23-2.5,5.07a6,6,0,0,0-5,8,4.35,4.35,0,0,0-3.42,3.62,4.59,4.59,0,0,0,2.44,4.41,4.15,4.15,0,0,0-2.57,4.28c.13,1.78,1.84,4.61,3.36,3.76-2.18,1.31-1,3.55-.2,4.28a4.53,4.53,0,0,0,2.5.59s-1,3,.86,3.49A2.76,2.76,0,0,0,26,95a2.24,2.24,0,0,0,.66,2.64,2.28,2.28,0,0,0,2.77-.07,3,3,0,0,0,.85-1.31,1,1,0,0,0,.07-.47A9.36,9.36,0,0,1,30,91.94a5.67,5.67,0,0,1-.13-1.51,9.68,9.68,0,0,1,.46-4.08c-.07-.46-.13-.93-.2-1.45v-.4c1.91.07,3.95-1.64,3.63-3.62,1,2.11,4.54,2.17,5.79.13.92,2.37,4.74,2.83,6.19.79A2.19,2.19,0,0,0,47.51,83l.66-.46a15.62,15.62,0,0,1,0,2.37,12.74,12.74,0,0,1-.27,1.71A2.39,2.39,0,0,1,48,88.85a18.73,18.73,0,0,0-1.38,3.62A9.59,9.59,0,0,0,47,96l.2-.2a4,4,0,0,0,2,1.52,6.43,6.43,0,0,0,4.08-.86c1.12-.66,2.57-2.83,1.84-3.89a3.88,3.88,0,0,0,3.3-1.45,6.69,6.69,0,0,0,.92-2.63c0-.66-.33-2.5-.92-2.63.06-.07.13-.07.19-.14A4.81,4.81,0,0,0,60.29,83Z"/></svg>