<svg id="Camada_1" data-name="Camada 1" xmlns="http://www.w3.org/2000/svg" viewBox="0 0 208 171.52"><defs><style>.cls-1{fill:#ebb300;}</style></defs><title>noun_master degrees_1617903</title><path class="cls-1" d="M83.4,69.66a5.3,5.3,0,0,1,1.5,1.5.75.75,0,0,0,.8.5h.1a1.15,1.15,0,0,0,.9-.6c.5-1.3,1.8-2.5,3.9-3.8a1,1,0,0,0-1.1-1.7,14.92,14.92,0,0,0-3.9,3.3,3.32,3.32,0,0,0-1.4-1,1,1,0,0,0-1.3.5A.92.92,0,0,0,83.4,69.66Z"/><path class="cls-1" d="M83.4,86.56a5.3,5.3,0,0,1,1.5,1.5.75.75,0,0,0,.8.5h.1a1.15,1.15,0,0,0,.9-.6c.5-1.3,1.8-2.5,3.9-3.8a1,1,0,1,0-1.1-1.7,14.92,14.92,0,0,0-3.9,3.3,3.32,3.32,0,0,0-1.4-1,1,1,0,0,0-1.3.5A.92.92,0,0,0,83.4,86.56Z"/><path class="cls-1" d="M83.4,104a5.3,5.3,0,0,1,1.5,1.5.75.75,0,0,0,.8.5h.1a1.15,1.15,0,0,0,.9-.6c.5-1.3,1.8-2.5,3.9-3.8a1,1,0,0,0-1.1-1.7,14.92,14.92,0,0,0-3.9,3.3,3.32,3.32,0,0,0-1.4-1,1,1,0,0,0-1.3.5A.92.92,0,0,0,83.4,104Z"/><path class="cls-1" d="M92.8,61.76H81a1,1,0,0,0-1,1v11.8a.94.94,0,0,0,1,1H92.8a.94.94,0,0,0,1-1V62.76A1,1,0,0,0,92.8,61.76Zm-1,11.8H82v-9.8h9.8Z"/><path class="cls-1" d="M92.8,78.86H81a.94.94,0,0,0-1,1v11.8a.94.94,0,0,0,1,1H92.8a.94.94,0,0,0,1-1V79.86A1.08,1.08,0,0,0,92.8,78.86Zm-1,11.8H82v-9.8h9.8Z"/><path class="cls-1" d="M92.8,96H81a.94.94,0,0,0-1,1v11.8a.94.94,0,0,0,1,1H92.8a.94.94,0,0,0,1-1V97A1.08,1.08,0,0,0,92.8,96Zm-1,11.8H82V98h9.8Z"/><path class="cls-1" d="M98,66.66h29a1,1,0,0,0,0-2H98a.94.94,0,0,0-1,1A1.08,1.08,0,0,0,98,66.66Z"/><path class="cls-1" d="M98,72.66h13.7a1,1,0,1,0,0-2H98a.94.94,0,0,0-1,1A1,1,0,0,0,98,72.66Z"/><path class="cls-1" d="M127,81.76H98a1,1,0,0,0,0,2h29a.94.94,0,0,0,1-1A1,1,0,0,0,127,81.76Z"/><path class="cls-1" d="M98,89.76h13.7a1,1,0,0,0,0-2H98a.94.94,0,0,0-1,1A1,1,0,0,0,98,89.76Z"/><path class="cls-1" d="M127,98.86H98a1,1,0,0,0,0,2h29a.94.94,0,0,0,1-1A1,1,0,0,0,127,98.86Z"/><path class="cls-1" d="M111.7,104.86H98a1,1,0,0,0,0,2h13.7a1,1,0,0,0,0-2Z"/></svg>