<svg id="Camada_1" data-name="Camada 1" xmlns="http://www.w3.org/2000/svg" viewBox="0 0 208 171.52"><defs><style>.cls-1{fill:#ebb300;}</style></defs><title>noun_master degrees_1617903</title><path class="cls-1" d="M144.5,121.73H96.4l.8-.8a1,1,0,0,0,0-1.4l-1.5-1.6,3.9-3.9a30.46,30.46,0,0,0,17.8,5.7h.1a31,31,0,0,0,.1-62h-.1a30.94,30.94,0,0,0-31,30.9,30.47,30.47,0,0,0,4.5,16.1l-4,4L85.3,107a1,1,0,0,0-1.4,0l-15.8,14.7H24.5m64-33a29,29,0,0,1,29-29h0a29,29,0,0,1,0,58h0A29.09,29.09,0,0,1,88.5,88.73Zm3.6,17.8a29.44,29.44,0,0,0,5.9,6.3l-3.7,3.7-5.9-6.2Zm-7.5,2.6,10.5,11-1.5,1.6H71Z"/><path class="cls-1" d="M117.5,110.73h0a22,22,0,0,0,0-44h0v2a20.06,20.06,0,0,1,20,20,19.74,19.74,0,0,1-5,13.1v-1.3a13.84,13.84,0,0,0-7.4-12.4c-.5.5-1,1-1.6,1.5a11.87,11.87,0,0,1,7,10.9v3.2a20.17,20.17,0,0,1-13.1,4.9,19.4,19.4,0,0,1-13-4.9v-3.2a11.61,11.61,0,0,1,7-10.9,7.52,7.52,0,0,1-1.6-1.5,14.1,14.1,0,0,0-7.3,12.5v1.3a20,20,0,0,1,15-33.2v-2a22,22,0,0,0,0,44Z"/><path class="cls-1" d="M109.5,81.73a8,8,0,1,0,8-8A8,8,0,0,0,109.5,81.73Zm14,0a6,6,0,1,1-6-6A6,6,0,0,1,123.5,81.73Z"/><rect class="cls-1" x="75.77" y="127.02" width="23.26" height="3.12" transform="translate(-65.41 99.94) rotate(-45.18)"/></svg>