<svg id="Camada_1" data-name="Camada 1" xmlns="http://www.w3.org/2000/svg" viewBox="0 0 208 171.52"><defs><style>.cls-1{fill:#ebb300;}</style></defs><title>noun_master degrees_1617903</title><path class="cls-1" d="M120.4,95.31l2.5,10.2-3.9,1-1.7-7.2h-9c-1.1,3.6-4,7.6-9.1,7.6s-8.1-3.8-9.2-7.6H81l-6.5,25.6-3.9-1,7.3-28.6H93.4l.2,1.7c0,.2.9,5.9,5.5,5.9a4.77,4.77,0,0,0,4.5-2.8,8.9,8.9,0,0,0,1.1-3.1l.2-1.7Z"/><path class="cls-1" d="M99.1,88.81a12.4,12.4,0,1,0-12.4-12.4A12.46,12.46,0,0,0,99.1,88.81Zm0-29a16.55,16.55,0,1,1-16.5,16.5A16.52,16.52,0,0,1,99.1,59.81Z"/><path class="cls-1" d="M137.8,112v17.2a1.58,1.58,0,0,1-1.6,1.6H116.7l-7.3,5.6a1.42,1.42,0,0,1-.6.2c-.2,0-.3,0-.4-.1a.81.81,0,0,1-.4-.8l.4-4.9h-1.6a1.58,1.58,0,0,1-1.6-1.6V112a1.58,1.58,0,0,1,1.6-1.6h29.4A1.52,1.52,0,0,1,137.8,112Zm-17.2,15.4,8.7-11-2.5-1.9-6.5,8.2-3.6-3.6-2.2,2.2Z"/><path class="cls-1" d="M126.86,68.82c.39-2-.87-4.4-2.83-4.3,2-2,2-5.17,1.27-7.42-.29-1.07-2.24-1.76-2.24-1.76s1.46-2.83.88-4.39a4.05,4.05,0,0,0-5-2.34c.68-2.44.68-5.28-1.08-7.23s-5.37-1.85-6.44.39a5.22,5.22,0,0,0-3-5.07,5.73,5.73,0,0,0-6,.87,5.73,5.73,0,0,0-5.28-2.63,5.61,5.61,0,0,0-4.58,3.71c-2.64-.78-5.47-1.47-8.11-.59s-4.59,4.1-3.22,6.54c-4.78.3-8.3,6-6.44,10.35a5.62,5.62,0,0,0-4.4,4.69,5.74,5.74,0,0,0,3.13,5.66,5.4,5.4,0,0,0-3.32,5.47c.19,2.24,2.34,6,4.29,4.78-2.83,1.66-1.27,4.59-.29,5.47s3.22.78,3.22.78-1.27,3.91,1.08,4.49a3.51,3.51,0,0,0,4.1-2.15,2.87,2.87,0,0,0,.88,3.42,2.79,2.79,0,0,0,3.51-.1A3.21,3.21,0,0,0,88.1,85.8a3.43,3.43,0,0,0,.13-.58,11.17,11.17,0,0,1-.39-4.87,6.57,6.57,0,0,1-.14-1.94,12.84,12.84,0,0,1,.56-5.21c-.1-.6-.19-1.21-.25-1.85v-.48c2.44.09,5.07-2.15,4.68-4.69,1.37,2.73,5.86,2.83,7.42.2,1.17,3,6.06,3.61,7.91,1a2.72,2.72,0,0,0,2.25,1.56l.88-.58a17,17,0,0,1,0,3c-.08.77-.18,1.51-.31,2.23a3.19,3.19,0,0,1,.08,2.91,20.73,20.73,0,0,0-1.78,4.65,12.7,12.7,0,0,0,.51,4.53l.23-.27a4.72,4.72,0,0,0,2.53,2,8.58,8.58,0,0,0,5.28-1.08c1.46-.88,3.32-3.61,2.34-5a4.86,4.86,0,0,0,4.2-1.85A8.93,8.93,0,0,0,125.4,76c0-.88-.39-3.22-1.17-3.42.1-.09.19-.09.29-.19A6.05,6.05,0,0,0,126.86,68.82Z"/></svg>