<svg id="Camada_1" data-name="Camada 1" xmlns="http://www.w3.org/2000/svg" viewBox="0 0 208 171.52"><defs><style>.cls-1{fill:#ebb300;}</style></defs><title>noun_master degrees_1617903</title><path class="cls-1" d="M116.2,28a3.6,3.6,0,0,1,1.2-.8l-9.6-9.5a5.51,5.51,0,0,0-4-1.6h0a5.61,5.61,0,0,0-4,1.7,5.7,5.7,0,0,0,.1,8.1l9.4,9.3Z"/><path class="cls-1" d="M57.4,76.1a1.38,1.38,0,0,1,.4-.3l-5.6-5.6a3.1,3.1,0,0,0-2.2-.9h0a3.1,3.1,0,0,0-2.2.9,3.26,3.26,0,0,0,0,4.5l5.6,5.5Z"/><path class="cls-1" d="M51.8,81.8l-5.6-5.5a3.1,3.1,0,0,0-2.2-.9h0a3.1,3.1,0,0,0-2.2.9,3.26,3.26,0,0,0,0,4.5l5.6,5.5Z"/><path class="cls-1" d="M107.6,36.7l-9.4-9.3a5.51,5.51,0,0,0-4-1.6h0a5.61,5.61,0,0,0-4,1.7,5.7,5.7,0,0,0,.1,8.1l9.4,9.3Z"/><path class="cls-1" d="M160.4,81.8l-5.6-5.5a3.1,3.1,0,0,0-2.2-.9h0a3.1,3.1,0,0,0-2.2.9,3.26,3.26,0,0,0,0,4.5l5.6,5.5Z"/><path class="cls-1" d="M166,76.1a1.38,1.38,0,0,1,.4-.3l-5.6-5.6a3.1,3.1,0,0,0-2.2-.9h0a3.1,3.1,0,0,0-2.2.9,3.26,3.26,0,0,0,0,4.5l5.6,5.5Z"/><path class="cls-1" d="M133.9,43.6,119.6,29.5a1.45,1.45,0,0,0-2,0L101.1,46.3l2.7,2.7a8.39,8.39,0,0,0,7.4,2.3,9.1,9.1,0,0,0,4.8-2.6l2.6-2.6a1.06,1.06,0,0,1,1.5,1.5l-2.8,2.8a10.94,10.94,0,0,1-7.5,3.2,10.68,10.68,0,0,1-2.5-.3,7.93,7.93,0,0,1-3.5,10.3,7.19,7.19,0,0,1-3.5.8h-.1a6.93,6.93,0,0,1-2-.3,7.83,7.83,0,0,1-1.7,7.3,6.92,6.92,0,0,1-3.7,2.1,8.13,8.13,0,0,1-1.7.4,5.63,5.63,0,0,1-5.2-1.6L76.6,63l-.9,4.4A6.1,6.1,0,0,0,77.4,73L92,87.6a1.08,1.08,0,0,1,.3.7v66.5a1,1,0,0,0,1,1h28.3a1,1,0,0,0,1-1V78.9a4.33,4.33,0,0,1,.1-.5l12.7-21.3A10.75,10.75,0,0,0,133.9,43.6Z"/><path class="cls-1" d="M104.4,60.6a5.61,5.61,0,0,1-4,1.7h0a6,6,0,0,1-4-1.6l-4.8-4.8L80.8,45.2a5.8,5.8,0,0,1-.1-8.1,5.61,5.61,0,0,1,4-1.7h0a6,6,0,0,1,4,1.6L98.8,47l.1.1,4.8,4.7.6.6A5.83,5.83,0,0,1,104.4,60.6Z"/><path class="cls-1" d="M94.9,70.2a5.61,5.61,0,0,1-4,1.7h0a6,6,0,0,1-4-1.6l-9.8-9.7-5.8-5.7a5.8,5.8,0,0,1-.1-8.1,5.61,5.61,0,0,1,4-1.7h0a6,6,0,0,1,4,1.6l10,9.9,5.6,5.5A5.7,5.7,0,0,1,94.9,70.2Z"/><path class="cls-1" d="M177.1,86.4l-9-8.8a.49.49,0,0,0-.3-.1.37.37,0,0,0-.3.1l-10,10.2,1.3,1.3.1.1a5,5,0,0,0,7-.1l1.7-1.8a1.06,1.06,0,0,1,1.5,1.5l-1.7,1.8a7.07,7.07,0,0,1-4.9,2.1h0a2.77,2.77,0,0,1-.9-.1,5.29,5.29,0,0,1-2.9,6.4,4.64,4.64,0,0,1-2.1.4h0a1.48,1.48,0,0,1-.7-.1,5.37,5.37,0,0,1-3,5.7,5.22,5.22,0,0,1-2.1.4h0a5.14,5.14,0,0,1-3.7-1.5l-5-5-.4,2.1a3.81,3.81,0,0,0,.9,3.2l9.2,9.1a1.08,1.08,0,0,1,.3.7v40.8a1,1,0,0,0,1,1h16.1a1,1,0,0,0,1-1V108.2a4.33,4.33,0,0,1,.1-.5l7.9-13.3A6.81,6.81,0,0,0,177.1,86.4Z"/><path class="cls-1" d="M158.6,96.5a3.14,3.14,0,0,1-4.4,0l-2.9-2.8-6.9-6.8a3.17,3.17,0,0,1,0-4.5,3.1,3.1,0,0,1,2.2-.9h0a3.1,3.1,0,0,1,2.2.9l8.3,8.3.9.9.5.5A2.89,2.89,0,0,1,158.6,96.5Z"/><path class="cls-1" d="M152.7,102.5a3.14,3.14,0,0,1-4.4,0l-6-5.9-3.7-3.7a3.26,3.26,0,0,1,0-4.5,3.1,3.1,0,0,1,2.2-.9h0a3.1,3.1,0,0,1,2.2.9l6.1,6.1,3.6,3.6A3,3,0,0,1,152.7,102.5Z"/><path class="cls-1" d="M68.5,86.4l-8.9-8.8a.49.49,0,0,0-.3-.1.37.37,0,0,0-.3.1L49,87.8l1.3,1.3a5,5,0,0,0,7.1.1l1.7-1.8a1.06,1.06,0,0,1,1.5,1.5l-1.7,1.8A7.07,7.07,0,0,1,54,92.8h0a2.77,2.77,0,0,1-.9-.1,5.29,5.29,0,0,1-2.9,6.4,4.48,4.48,0,0,1-2,.4h0a1.48,1.48,0,0,1-.7-.1,5.36,5.36,0,0,1-1.4,4.5h0a5.23,5.23,0,0,1-3.7,1.6h0a5.14,5.14,0,0,1-3.7-1.5l-5-5-.4,2.1a3.81,3.81,0,0,0,.9,3.2l9.2,9.1a1.08,1.08,0,0,1,.3.7v40.8a1,1,0,0,0,1,1H60.8a1,1,0,0,0,1-1V108.3a4.33,4.33,0,0,1,.1-.5l7.9-13.3A7.32,7.32,0,0,0,68.5,86.4Z"/><path class="cls-1" d="M50,96.5a3.1,3.1,0,0,1-2.2.9h0a3.1,3.1,0,0,1-2.2-.9l-2.9-2.8-6.9-6.8a3.17,3.17,0,0,1,0-4.5,3.1,3.1,0,0,1,2.2-.9h0a3.1,3.1,0,0,1,2.2.9l7.4,7.3,1.8,1.8.5.5A3,3,0,0,1,50,96.5Z"/><path class="cls-1" d="M44.1,102.5a3.14,3.14,0,0,1-4.4,0l-6-5.9L30,92.9a3.17,3.17,0,0,1,0-4.5,3.1,3.1,0,0,1,2.2-.9h0a3.1,3.1,0,0,1,2.2.9l6.1,6.1,3.6,3.6A3,3,0,0,1,44.1,102.5Z"/></svg>