<svg id="Camada_1" data-name="Camada 1" xmlns="http://www.w3.org/2000/svg" viewBox="0 0 208 171.52"><defs><style>.cls-1{fill:#ebb300;}</style></defs><title>noun_master degrees_1617903</title><path class="cls-1" d="M158,113.4c4.6,3.6,19.7,13,39.4-1.9h0s-15.5-15.7-37.4-1.7l1.5-3.3a52,52,0,0,0,4-18.3c6.2,1.3,21.4,2.1,31.8-17h0s-18.5-7.1-31.8,11.9a53.51,53.51,0,0,0-4.6-18.9c5-3.2,16.1-12.9,10.2-33.1h0s-15.5,6.8-14,25.9a52.74,52.74,0,0,0-8.9-10.6c2.1-4.9,6.5-20.1-10.9-33.5h0s-9.6,16.5,6.5,32c7.6,9.8,22,32.9,12.4,59.4-5.4,12.6-15.4,20.8-25.2,26.1V117.6a25.7,25.7,0,0,0-51.4,0v12.8c-9.8-5.3-19.9-13.5-25.2-26.1-9.6-26.5,4.8-49.6,12.4-59.4,16.1-15.5,6.5-32,6.5-32h0c-17.4,13.4-13,28.6-10.9,33.5A56.26,56.26,0,0,0,53.5,57c1.4-19.1-14-25.9-14-25.9h0c-5.9,20.1,5.2,29.8,10.2,33.1a56.33,56.33,0,0,0-4.6,18.9c-13.4-19.1-31.9-12-31.9-12h0C23.6,90.2,38.8,89.4,45,88.1a51,51,0,0,0,4,18.3l1.5,3.3c-22-13.9-37.5,1.8-37.5,1.8h0c19.7,14.9,34.8,5.5,39.4,1.9a54.44,54.44,0,0,0,13.5,15.1c-23.5-3.8-32.6,14.8-32.6,14.8h0c23.5,7.9,35.3-5.1,39-10.6a55.29,55.29,0,0,0,18.2,6.2c-24.4,5.9-24.9,27.5-24.9,27.5h0c25.9-2.8,30.3-21.2,31.1-26.9,2.7.1,14,.1,16.7,0,.8,5.7,5.2,24.1,31.1,26.9h0s-.5-21.6-24.9-27.5a55.29,55.29,0,0,0,18.2-6.2c3.7,5.5,15.5,18.5,39,10.6h0s-9.1-18.6-32.6-14.8A52.34,52.34,0,0,0,158,113.4Zm-72.4,4.1a19.6,19.6,0,0,1,20.3-19.6c10.6.4,18.9,9.4,18.9,20.1v14.4l-6,1.3a58.72,58.72,0,0,1-26.7-.3l-6.5-1.6Z"/><path class="cls-1" d="M139.1,48.6,105.2,33.7,71.3,48.6l11.8,4.3v7.6a21.81,21.81,0,0,0-.9,6.3,23,23,0,1,0,46,0,21.81,21.81,0,0,0-.9-6.3V52.9ZM105.2,83.7a17,17,0,0,1-17-17,17.37,17.37,0,0,1,.5-3.9h33a16,16,0,0,1,.5,3.9A17,17,0,0,1,105.2,83.7Z"/><path class="cls-1" d="M115,47.9a2.8,2.8,0,0,1-3.3-.9,1.06,1.06,0,0,0-.5-.2,2.65,2.65,0,0,1-3.4-.7,2.66,2.66,0,0,1-3.7.1c-.2.2-.4.3-.6.5a2.43,2.43,0,0,1-2.7.4c-.3-.1-.5-.1-.7.2a2.56,2.56,0,0,1-2.8,1.1c-.4-.1-.6,0-.7.4A2.42,2.42,0,0,1,94,50.3c-.3,0-.5,0-.6.3a2.58,2.58,0,0,1-2.7,2c-.1,0-.1,0-.2.1a4.33,4.33,0,0,1-.1.5,2.33,2.33,0,0,1-2,2,.66.66,0,0,0-.6.7,2.6,2.6,0,0,1-1.6,2.4c-.4.2-.5.3-.4.7a2.37,2.37,0,0,1-1,2.6.63.63,0,0,0-.3.9,2.44,2.44,0,0,1-.5,2.8c-.3.3-.3.5-.1.9a2.41,2.41,0,0,1,0,3c1.1,1.5,1.1,1.7.5,3.2.2.2.4.5.6.7a2.17,2.17,0,0,1,.1,2.2.45.45,0,0,0,0,.5c1,1.3,1,1.8.2,3.2a2.27,2.27,0,0,1,0,3.5c.1.2.2.3.3.5a2,2,0,0,1-.4,2.6c-.1.1-.3.4-.2.6.4,1.4.3,2-.8,2.9a1.08,1.08,0,0,0-.2.7,2.1,2.1,0,0,1-1.4,2.7,2.09,2.09,0,0,0-.6.4,1.39,1.39,0,0,1-1.9,0,1.51,1.51,0,0,1-.2-1.9c.3-.4.9-.6,1.1-1s-.1-1,0-1.4a8.16,8.16,0,0,1,1.1-1.7,2.07,2.07,0,0,1,.8-2.8A2.2,2.2,0,0,1,83,81a2.18,2.18,0,0,1-.3-3c.1-.1,0-.3-.1-.4a2.29,2.29,0,0,1-.3-3,2.3,2.3,0,0,1-.6-3.3,2.28,2.28,0,0,1-.3-3.5,3.51,3.51,0,0,1-.5-.8,2.29,2.29,0,0,1,.4-2.8.78.78,0,0,0,.2-1,2.32,2.32,0,0,1,.9-3.2.81.81,0,0,0,.4-.8,2.43,2.43,0,0,1,1.5-3,.75.75,0,0,0,.5-.8,2.43,2.43,0,0,1,2.1-2.6c.4-.1.5-.2.6-.6A2.4,2.4,0,0,1,89.9,50c.4-.1.7-.2.8-.7a2.3,2.3,0,0,1,2.7-1.7.75.75,0,0,0,.8-.5,2.53,2.53,0,0,1,3-1.5c.3.1.5,0,.8-.3a2.21,2.21,0,0,1,3-1,.94.94,0,0,0,1.1-.2c1.1-1,1.9-1,3.2-.3a.75.75,0,0,0,.9,0,2.33,2.33,0,0,1,3.2.1.91.91,0,0,0,1.1.2,2.26,2.26,0,0,1,3.1.8.63.63,0,0,0,.8.3,2.39,2.39,0,0,1,3.1,1.3.81.81,0,0,0,.8.4c1.6-.1,2.2.4,2.8,1.8a.66.66,0,0,0,.5.4,2.54,2.54,0,0,1,2.7,2.2c0,.1.2.3.4.4s.7.2,1,.3a2.43,2.43,0,0,1,1.4,2.1,2.92,2.92,0,0,0,.2.9,1.41,1.41,0,0,1-.6,1.8,1.33,1.33,0,0,1-1.8-.5,5.78,5.78,0,0,1-.5-1.4c-.1-.3-.1-.5-.5-.5a2.45,2.45,0,0,1-2.3-2.1c-.1-.3-.2-.5-.6-.5a2.39,2.39,0,0,1-2.5-1.8c-.1-.2-.3-.4-.4-.4a2.71,2.71,0,0,1-3-1.7C115.1,48,115,48,115,47.9Z"/><path class="cls-1" d="M128.1,52.5a3.19,3.19,0,0,0-1.4-.3.66.66,0,0,1-.5-.4,2.47,2.47,0,0,0-2.6-1.8h-.2a.81.81,0,0,1-.8-.4.76.76,0,0,1-.2-.4h0a2,2,0,0,0-1.6-1,2.63,2.63,0,0,0-1.2.1h-.2a.55.55,0,0,1-.5-.3c-.1-.2-.3-.3-.4-.5a1.79,1.79,0,0,0-.7-.5h-.1a2.81,2.81,0,0,0-2,.1.94.94,0,0,1-1.1-.2,2.31,2.31,0,0,0-3.1-.2h0a.78.78,0,0,1-.8.1c-.1,0-.1,0-.2-.1a2.29,2.29,0,0,0-2.2-.3h0a2.36,2.36,0,0,0-.9.6c-.3.3-.6.3-1.1.2a2.21,2.21,0,0,0-3,1c-.2.3-.4.3-.8.3A2.59,2.59,0,0,0,99.4,50a.75.75,0,0,1-.8.5,2.35,2.35,0,0,0-2.7,1.7,1,1,0,0,1-.8.7,2.4,2.4,0,0,0-2.4,2.2c-.1.4-.2.5-.6.6A2.43,2.43,0,0,0,90,58.3a.75.75,0,0,1-.5.8,2.31,2.31,0,0,0-1.5,3c.1.4-.1.6-.4.9a2.32,2.32,0,0,0-.9,3.2.91.91,0,0,1-.2,1.1,2.31,2.31,0,0,0-.4,2.8c.2.3.3.5.5.8a2.28,2.28,0,0,0,.3,3.5,2.22,2.22,0,0,0,.6,3.3,1.33,1.33,0,0,0-.3.8,2.1,2.1,0,0,0,.6,2.2.6.6,0,0,1,.1.4,2.19,2.19,0,0,1-.3.5,2.19,2.19,0,0,0,.6,2.4l-.1.1a2.18,2.18,0,0,0-.1,3,2.22,2.22,0,0,0-.9,1.3,2.44,2.44,0,0,0,0,1.2c0,.1.1.2.1.3a8.65,8.65,0,0,1-.7,1,1.61,1.61,0,0,0-.4.7c-.2.4.2,1,0,1.4s-.8.6-1.1,1a1.4,1.4,0,0,0,.2,1.9,1.8,1.8,0,0,0,.9.4,1.43,1.43,0,0,0,1-.4c.2-.1.4-.3.6-.4a2.26,2.26,0,0,0,1.4-2.7c0-.2,0-.4.2-.5a2.11,2.11,0,0,0,.8-2.9,1.07,1.07,0,0,1,.2-.6A1.93,1.93,0,0,0,91,87a1.61,1.61,0,0,0-.3-.9c-.1-.2-.2-.3-.3-.5a3.28,3.28,0,0,0,.6-.8c.1-.2.1-.3.2-.5v-.2A1.39,1.39,0,0,0,91,83a2.1,2.1,0,0,0-.6-.8,5.9,5.9,0,0,0,.4-.8,1.89,1.89,0,0,0-.3-2,1.38,1.38,0,0,1-.3-.4.45.45,0,0,1,0-.5c0-.1.1-.2.1-.4a1.94,1.94,0,0,0-.2-1.8.1.1,0,0,0-.1-.1c-.2-.2-.3-.4-.5-.6a3,3,0,0,0,.4-1.4,2.73,2.73,0,0,0-.7-1.5c-.1-.1-.1-.2-.2-.3l.1-.1a2.27,2.27,0,0,0-.1-2.9c-.3-.3-.2-.6.1-.9a2.44,2.44,0,0,0,.5-2.8c-.2-.4-.1-.6.3-.9A2.26,2.26,0,0,0,91,62.7a1.27,1.27,0,0,0-.1-.6c-.1-.4,0-.6.4-.7A2.6,2.6,0,0,0,92.9,59a.66.66,0,0,1,.6-.7,2.33,2.33,0,0,0,2-2,4.33,4.33,0,0,1,.1-.5h.2a2.79,2.79,0,0,0,2.8-2,.42.42,0,0,1,.6-.3,2.42,2.42,0,0,0,2.6-1.5c.2-.3.4-.5.7-.4a2.56,2.56,0,0,0,2.8-1.1c.2-.3.4-.3.7-.2a2.43,2.43,0,0,0,2.7-.4,2.65,2.65,0,0,0,.6-.5,2.76,2.76,0,0,0,3.7-.1,2.65,2.65,0,0,0,3.4.7c.1,0,.4,0,.5.2a2.71,2.71,0,0,0,1.9,1.1h.4a4.4,4.4,0,0,0,1-.2l.1.1c.1.2.2.5.4.6h0a6.47,6.47,0,0,0,.9.8,2.85,2.85,0,0,0,1.6.2c.1,0,.4.2.4.4a3,3,0,0,0,.9,1.3,2.77,2.77,0,0,0,1.6.5c.3,0,.5.1.6.5l.3.9h0a.22.22,0,0,0,.2.2Z"/><path class="cls-1" d="M130.4,76.8c.6-1.5.5-2-.7-3.1-.1-.1-.1-.4-.1-.5a2.22,2.22,0,0,0-.4-2.2c-.2-.2-.5-.4-.7-.6.4-1.6.3-1.8-1-3.1a2.28,2.28,0,0,0,.3-1.1,6.5,6.5,0,0,1-3.1.4,2.24,2.24,0,0,0,1,3,2.29,2.29,0,0,0,1.1,3.2,2.11,2.11,0,0,0,.8,2.9c.1.1.2.3.1.4a2.23,2.23,0,0,0,.8,2.9,2.31,2.31,0,0,0,.3,3.1,2.18,2.18,0,0,0-.3,2.9,9.73,9.73,0,0,0-.8,1.9c-.1.4.3,1,.2,1.4s-.7.7-.9,1.1a1.33,1.33,0,0,0,.5,1.8,1.42,1.42,0,0,0,1.9-.3l.5-.5a2.15,2.15,0,0,0,.9-2.9c-.1-.1,0-.4.1-.5,1-1.1,1-1.7.4-3a.61.61,0,0,1,.1-.6,2.11,2.11,0,0,0,0-2.7c-.1-.1-.2-.3-.3-.4A2.39,2.39,0,0,0,130.4,76.8Z"/><path class="cls-1" d="M125,73.8c.1-.5.3-1.1.4-1.7A4.49,4.49,0,0,1,125,73.8Z"/><path class="cls-1" d="M125.8,87.1c-.1.1-.3.4-.2.6.4,1.4.3,2-.9,2.9a.76.76,0,0,0-.2.5,2.12,2.12,0,0,1-1.3,2.7,2.09,2.09,0,0,0-.6.4,1.59,1.59,0,0,1-1.3.3l-.6-.3a1.51,1.51,0,0,1-.2-1.9c.3-.4.9-.6,1.1-1s-.1-1,0-1.4a5.45,5.45,0,0,1,1.1-1.7,2.07,2.07,0,0,1,.8-2.8,2.26,2.26,0,0,1-.5-1.5h0a2.13,2.13,0,0,1,.7-1.6,2.18,2.18,0,0,1-.3-3c.1-.1,0-.3-.1-.4l-.1-.1a26.22,26.22,0,0,0,1.9-4.9,4.35,4.35,0,0,1,.6.7,2.17,2.17,0,0,1,.1,2.2.45.45,0,0,0,0,.5,2.36,2.36,0,0,1,.6.9c.4.7.2,1.3-.4,2.3a2.16,2.16,0,0,1,0,3.4c.1.2.2.3.3.5A2.46,2.46,0,0,1,125.8,87.1Z"/><path class="cls-1" d="M121.2,92.6c-.1.1-.3.4-.2.6a3,3,0,0,1,.2,1.2c0,.6-.3,1-1.1,1.6a1.06,1.06,0,0,0-.2.5,2.15,2.15,0,0,1-1.2,2.7h0a.1.1,0,0,0-.1.1,2.09,2.09,0,0,0-.6.4,1.39,1.39,0,0,1-1.9,0,1.51,1.51,0,0,1-.2-1.9,3.11,3.11,0,0,1,.9-.7c.1-.1.2-.2.2-.3.2-.4-.1-1,0-1.4a5.45,5.45,0,0,1,1.1-1.7,2.07,2.07,0,0,1,.8-2.8,2.21,2.21,0,0,1,.2-3.1h0a2.29,2.29,0,0,1-.3-3v-.2a18.67,18.67,0,0,0,2.6-3,1.85,1.85,0,0,1-.2.7.45.45,0,0,0,0,.5c.8,1,1,1.5.6,2.3h0a6.31,6.31,0,0,1-.4.9,2.16,2.16,0,0,1,0,3.4.76.76,0,0,1,.2.4.1.1,0,0,0,.1.1A2.14,2.14,0,0,1,121.2,92.6Z"/><path class="cls-1" d="M90.4,78.3a1.84,1.84,0,0,1-.3-2,.1.1,0,0,1,.1.1A2.18,2.18,0,0,1,90.4,78.3Z"/><path class="cls-1" d="M90.6,79.6a1.87,1.87,0,0,1,.3,2A2.36,2.36,0,0,1,90.6,79.6Z"/><path class="cls-1" d="M94.8,90.7a2,2,0,0,1-.4,2.6c-.1.1-.3.4-.2.6.4,1.3.3,1.8-.5,2.6l-.3.3a1.06,1.06,0,0,0-.2.5,3.15,3.15,0,0,1-.1,1.7,2,2,0,0,1-1.2,1,2.09,2.09,0,0,0-.6.4,1.39,1.39,0,0,1-1.9,0,1,1,0,0,1-.4-1,1.14,1.14,0,0,1,.3-.8c.3-.4.9-.6,1.1-1s-.1-1,0-1.4a5.45,5.45,0,0,1,1.1-1.7,2.07,2.07,0,0,1,.8-2.8,2.21,2.21,0,0,1,.2-3.1,2.36,2.36,0,0,1-.6-.9,2.06,2.06,0,0,1,.3-2.1c.1-.1,0-.3-.1-.4a1.79,1.79,0,0,1-.5-.7.37.37,0,0,1-.1-.3,3.08,3.08,0,0,1-.1-1,1.47,1.47,0,0,1,.2,1.1,23.41,23.41,0,0,0,3.5,2.9,2.2,2.2,0,0,1-.3,3C94.6,90.4,94.7,90.5,94.8,90.7Z"/><path class="cls-1" d="M86.5,87.5c.8-1.4.8-1.9-.2-3.2a.45.45,0,0,1,0-.5,2.16,2.16,0,0,0-.1-2.2,4.35,4.35,0,0,0-.6-.7c.6-1.5.6-1.8-.5-3.2a2.35,2.35,0,0,0,.5-1,8.1,8.1,0,0,1-3.1-.1,2.16,2.16,0,0,0,.5,3.1,2.22,2.22,0,0,0,.6,3.3,2.18,2.18,0,0,0,.3,3,.6.6,0,0,1,.1.4,2.29,2.29,0,0,0,.3,3,2.21,2.21,0,0,0-.2,3.1,2.34,2.34,0,0,0-.8,2.8A12,12,0,0,0,82.2,97c-.2.4.2,1,0,1.4s-.8.6-1.1,1a1.42,1.42,0,0,0,2.1,1.9,2.09,2.09,0,0,1,.6-.4,2.26,2.26,0,0,0,1.4-2.7c0-.2,0-.4.2-.5a2.11,2.11,0,0,0,.8-2.9c-.1-.2.1-.5.2-.6a2,2,0,0,0,.4-2.6,2.19,2.19,0,0,1-.3-.5A2.45,2.45,0,0,0,86.5,87.5Z"/></svg>